# xmcd CD database file
#
# Track frame offsets:
#	150
#	9876
#	35416
#	58604
#	83398
#	104421
#	132299
#	152846
#	178861
#	204705
#	232593
#	259620
#	282142
#	303128
#	313231
#	344267
#
# Disc length: 4721 seconds
#
# Revision: 1
# Processed by: cddbd v1.5.1PL0 Copyright (c) Steve Scherf et al.
# Submitted via: CDex 1.51
#
DISCID=ca126f10
DTITLE=Flaming Bess - Black Sun
DYEAR=2005
DGENRE=New Age
TTITLE0=Chapter 1: Black sun (Prologue)
TTITLE1=Chapter 1: Journey into light
TTITLE2=Chapter 1: Source of light
TTITLE3=Chapter 1: Endless river
TTITLE4=Chapter 1: The last resort
TTITLE5=Chapter 2: Kingdom of gods
TTITLE6=Chapter 2: Battle of Dig Dagg
TTITLE7=Chapter 2: The challenge
TTITLE8=Chapter 2: Endless void
TTITLE9=Chapter 3: Cursed land
TTITLE10=Chapter 3: The key of life
TTITLE11=Chapter 3: Shelter from the storm
TTITLE12=Chapter 3: Silent melodies
TTITLE13=Chapter 3: A new dawn (Epilogue)
TTITLE14=Iganu (Album Version)
TTITLE15=Information Track
EXTD=YEAR: 2005
EXTT0=
EXTT1=
EXTT2=
EXTT3=
EXTT4=
EXTT5=
EXTT6=
EXTT7=
EXTT8=
EXTT9=
EXTT10=
EXTT11=
EXTT12=
EXTT13=
EXTT14=
EXTT15=
PLAYORDER=
